<?xml version="1.0" encoding="utf-8"?>
<!-- Generator: Adobe Illustrator 27.0.0, SVG Export Plug-In . SVG Version: 6.00 Build 0)  -->
<svg version="1.1" id="Warstwa_1" xmlns="http://www.w3.org/2000/svg" xmlns:xlink="http://www.w3.org/1999/xlink" x="0px" y="0px"
	 viewBox="0 0 98 56" style="enable-background:new 0 0 98 56;" xml:space="preserve">
<style type="text/css">
	.st0{fill-rule:evenodd;clip-rule:evenodd;fill:#37E4DA;}
</style>
<path class="st0" d="M64.2,56H50.9V0h13.3V56z M46.2,28.1c0,12.7-10.3,23.1-23.1,23.1C10.4,51.1,0,40.8,0,28.1S10.3,5,23.1,5
	C35.8,5,46.2,15.3,46.2,28.1z M30.1,28.1c0-3.8-3.1-7-7-7c0,0,0,0,0,0c-3.8,0-7,3.1-7,7c0,0,0,0,0,0c0,3.8,3.1,7,7,7c0,0,0,0,0,0
	C26.9,35,30,31.9,30.1,28.1C30.1,28.1,30.1,28.1,30.1,28.1z M97.8,14.1H89l-5.2,5.2l-5.2-5.2h-8.8v9l5.1,5.1l-5.1,5.1v8.8h9l5.1-5
	l5.1,5h9v-8.8l-5.1-5.1l5.1-5.1L97.8,14.1L97.8,14.1L97.8,14.1z"/>
</svg>
